<svg width="27" height="25" viewBox="0 0 27 25" fill="none" xmlns="http://www.w3.org/2000/svg">
<path fill-rule="evenodd" clip-rule="evenodd" d="M1.5342 7.14609C0.880005 8.31021 0.880005 9.71447 0.880005 12.523V14.3898C0.880005 19.1771 0.880005 21.5709 2.35618 23.0581C3.83237 24.5455 6.20824 24.5455 10.96 24.5455H16C20.7517 24.5455 23.1277 24.5455 24.6038 23.0581C26.08 21.5709 26.08 19.1771 26.08 14.3898V12.523C26.08 9.71447 26.08 8.31021 25.4258 7.14609C24.7716 5.98199 23.5765 5.25949 21.1862 3.81451L18.6662 2.29116C16.1394 0.763719 14.876 0 13.48 0C12.0841 0 10.8206 0.763719 8.29388 2.29116L5.77388 3.81452C3.38356 5.25949 2.18839 5.98199 1.5342 7.14609ZM9.7 18.7159C9.1781 18.7159 8.755 19.128 8.755 19.6364C8.755 20.1447 9.1781 20.5568 9.7 20.5568H17.26C17.7819 20.5568 18.205 20.1447 18.205 19.6364C18.205 19.128 17.7819 18.7159 17.26 18.7159H9.7Z" fill="#1C274C"/>
</svg>
