<svg width="27" height="25" viewBox="0 0 27 25" fill="none" xmlns="http://www.w3.org/2000/svg">
<path d="M2.71105 22.7059L2.71106 22.7059C3.34093 23.3405 4.18055 23.6858 5.49687 23.8641C6.82797 24.0444 8.56988 24.0455 10.96 24.0455H16C18.3901 24.0455 20.132 24.0444 21.4631 23.8641C22.7795 23.6857 23.6191 23.3405 24.2489 22.7059L24.2489 22.7059C24.8793 22.0708 25.2227 21.2234 25.3999 19.8954C25.579 18.5534 25.58 16.7975 25.58 14.3898V12.523C25.58 11.1092 25.5795 10.084 25.5005 9.2659C25.4226 8.45839 25.2711 7.89132 24.9899 7.39104C24.7089 6.89096 24.3046 6.4687 23.6581 5.98641C23.0027 5.49755 22.1309 4.96985 20.9275 4.2424L18.4075 2.71905C17.1355 1.95012 16.2129 1.39314 15.435 1.02466C14.6673 0.66104 14.0779 0.5 13.48 0.5C12.8821 0.5 12.2927 0.66104 11.525 1.02466C10.7471 1.39314 9.82455 1.95012 8.55255 2.71905M2.71105 22.7059L8.55255 2.71905M2.71105 22.7059C2.08069 22.0708 1.73735 21.2234 1.56013 19.8954C1.38105 18.5534 1.38 16.7975 1.38 14.3898V12.523C1.38 11.1092 1.38054 10.084 1.45947 9.2659C1.53737 8.45839 1.68895 7.89132 1.97008 7.39104C2.25112 6.89096 2.65538 6.46871 3.30195 5.98641C3.9573 5.49756 4.82918 4.96986 6.03255 4.24242L8.55255 2.71905M2.71105 22.7059L8.29388 2.29116L8.55255 2.71905M9.7 18.2159C8.91444 18.2159 8.255 18.8396 8.255 19.6364C8.255 20.4332 8.91444 21.0568 9.7 21.0568H17.26C18.0456 21.0568 18.705 20.4332 18.705 19.6364C18.705 18.8396 18.0456 18.2159 17.26 18.2159H9.7Z" fill="white" stroke="black"/>
</svg>
